<?xml version="1.0" encoding="iso-8859-1"?>
<!-- Generator: Adobe Illustrator 19.0.0, SVG Export Plug-In . SVG Version: 6.00 Build 0)  -->
<svg version="1.1" id="Capa_1" xmlns="http://www.w3.org/2000/svg" xmlns:xlink="http://www.w3.org/1999/xlink" x="0px" y="0px"
	 viewBox="0 0 512 512" style="enable-background:new 0 0 512 512;" xml:space="preserve">
<path style="fill:#80209E;" d="M438.154,0H73.846C33.127,0,0,33.127,0,73.846v364.308C0,478.873,33.127,512,73.846,512h364.308
	C478.873,512,512,478.873,512,438.154V73.846C512,33.127,478.873,0,438.154,0z"/>
<path style="fill:#B809B0;" d="M256,0H73.846C33.127,0,0,33.127,0,73.846v364.308C0,478.873,33.127,512,73.846,512H256V0z"/>
<path style="fill:#FFCA28;" d="M325.967,256l79.405-79.23c9.359-9.337,14.512-21.762,14.513-34.981
	c0-13.221-5.154-25.645-14.512-34.984c-0.001,0-0.002,0-0.002,0c-19.246-19.204-50.564-19.203-69.811,0L256,186.188l-79.559-79.385
	c-19.248-19.202-50.565-19.203-69.813,0.001c-9.359,9.339-14.512,21.764-14.512,34.984c0.001,13.22,5.154,25.644,14.513,34.981
	L186.033,256l-79.405,79.23c-9.359,9.338-14.512,21.762-14.512,34.982s5.153,25.645,14.513,34.983
	c9.624,9.603,22.262,14.405,34.905,14.403c12.64-0.001,25.284-4.802,34.907-14.403L256,325.812l79.559,79.385
	c19.248,19.202,50.565,19.203,69.813-0.001c9.359-9.339,14.512-21.764,14.512-34.984c-0.001-13.22-5.154-25.644-14.513-34.981
	L325.967,256z"/>
<path style="fill:#FFD54F;" d="M176.441,106.803c-19.248-19.202-50.565-19.203-69.813,0.001
	c-9.359,9.339-14.512,21.764-14.512,34.984c0.001,13.22,5.154,25.644,14.513,34.981L186.033,256l-79.405,79.23
	c-9.359,9.338-14.512,21.762-14.512,34.982s5.153,25.645,14.513,34.983c9.624,9.603,22.262,14.405,34.905,14.403
	c12.64-0.001,25.284-4.802,34.907-14.403L256,325.812V186.188L176.441,106.803z"/>
<g>
</g>
<g>
</g>
<g>
</g>
<g>
</g>
<g>
</g>
<g>
</g>
<g>
</g>
<g>
</g>
<g>
</g>
<g>
</g>
<g>
</g>
<g>
</g>
<g>
</g>
<g>
</g>
<g>
</g>
</svg>
